<svg width="30" height="30" viewBox="0 0 30 30" fill="none" xmlns="http://www.w3.org/2000/svg">
<path d="M10.855 30C6.39007 29.9743 2.69678 20.8599 2.69678 16.2182C2.69678 8.63592 8.38477 6.97596 10.5769 6.97596C11.5648 6.97596 12.6197 7.36391 13.5501 7.70721C14.2007 7.94668 14.8736 8.19389 15.2478 8.19389C15.4718 8.19389 15.9997 7.98359 16.4658 7.79908C17.4597 7.4034 18.6965 6.91162 20.1367 6.91162C20.1393 6.91162 20.1428 6.91162 20.1453 6.91162C21.2207 6.91162 24.4815 7.14764 26.4418 10.0916L26.901 10.7817L26.2401 11.2804C25.296 11.9928 23.5734 13.2922 23.5734 15.8663C23.5734 18.915 25.5243 20.0875 26.4616 20.6514C26.8753 20.9003 27.3036 21.1569 27.3036 21.7183C27.3036 22.0848 24.3784 29.9545 20.1307 29.9545C19.0913 29.9545 18.3566 29.6421 17.7085 29.3666C17.0528 29.0876 16.4872 28.8474 15.5525 28.8474C15.0787 28.8474 14.4796 29.0714 13.8453 29.3091C12.9785 29.6326 11.9974 30 10.8842 30H10.855Z" fill="white"/>
<path d="M20.5867 0C20.6973 3.98883 17.8447 6.75609 14.9954 6.58254C14.5259 3.39932 17.8443 0 20.5867 0Z" fill="white"/>
</svg>
