<svg width="31" height="31" viewBox="0 0 31 31" fill="none" xmlns="http://www.w3.org/2000/svg">
<g clip-path="url(#clip0_1704_36)">
<path d="M15.1122 -0.0239258C6.77849 -0.0239258 0.0380085 6.71656 0.0380085 15.0503C-0.0232687 23.4452 6.77849 30.1857 15.1122 30.1857C23.4459 30.1857 30.1864 23.4452 30.1864 15.1115C30.1864 6.77784 23.4459 -0.0239258 15.1122 -0.0239258ZM19.0952 15.0503H16.4603C16.4603 19.2171 16.4603 24.3644 16.4603 24.3644H12.5998C12.5998 24.3644 12.5998 19.2784 12.5998 15.0503H10.7615V11.7413H12.5998V9.59659C12.5998 8.06466 13.3351 5.67485 16.5215 5.67485H19.4016V8.86126C19.4016 8.86126 17.6858 8.86126 17.3181 8.86126C16.9505 8.86126 16.5215 9.04509 16.5215 9.78042V11.7413H19.4628L19.0952 15.0503Z" fill="#5E5E5E"/>
</g>
<defs>
<clipPath id="clip0_1704_36">
<rect width="31" height="31" fill="white"/>
</clipPath>
</defs>
</svg>
