<svg width="31" height="31" viewBox="0 0 31 31" fill="none" xmlns="http://www.w3.org/2000/svg">
<g clip-path="url(#clip0_1704_39)">
<path fill-rule="evenodd" clip-rule="evenodd" d="M15.6097 0.0012207C23.927 0.0012207 30.6785 6.75273 30.6785 15.07C30.6785 23.3872 23.927 30.1387 15.6097 30.1387C7.29252 30.1387 0.541016 23.3872 0.541016 15.07C0.541016 6.75273 7.29252 0.0012207 15.6097 0.0012207ZM15.6097 5.652C13.0492 5.652 12.7314 5.66377 11.7248 5.71086C10.7242 5.75795 10.0355 5.91688 9.441 6.14644C8.82294 6.38778 8.29907 6.71152 7.77519 7.2354C7.25132 7.75927 6.92758 8.28314 6.68624 8.9012C6.45079 9.50159 6.29187 10.1844 6.25066 11.1851C6.20357 12.1916 6.1918 12.5095 6.1918 15.07C6.1918 17.6305 6.20357 17.9483 6.25066 18.9549C6.29775 19.9555 6.45668 20.6442 6.68624 21.2387C6.92758 21.8568 7.25132 22.3807 7.77519 22.9045C8.29907 23.4284 8.82294 23.7522 9.441 23.9935C10.0414 24.2289 10.7242 24.3879 11.7248 24.4291C12.7314 24.4762 13.0492 24.4879 15.6097 24.4879C18.1703 24.4879 18.4881 24.4762 19.4947 24.4291C20.4953 24.382 21.184 24.2231 21.7785 23.9935C22.3966 23.7522 22.9204 23.4284 23.4443 22.9045C23.9682 22.3807 24.2919 21.8568 24.5333 21.2387C24.7687 20.6383 24.9276 19.9555 24.9689 18.9549C25.0159 17.9483 25.0277 17.6305 25.0277 15.07C25.0277 12.5095 25.0159 12.1916 24.9689 11.1851C24.9218 10.1844 24.7628 9.49571 24.5333 8.9012C24.2919 8.28314 23.9682 7.75927 23.4443 7.2354C22.9204 6.71152 22.3966 6.38778 21.7785 6.14644C21.1781 5.911 20.4953 5.75207 19.4947 5.71086C18.4881 5.66377 18.1644 5.652 15.6097 5.652ZM15.6097 7.34723C18.1232 7.34723 18.4234 7.35901 19.4181 7.40021C20.3364 7.44141 20.8367 7.59446 21.1663 7.72395C21.6078 7.89465 21.9198 8.10067 22.2494 8.4303C22.579 8.75993 22.7851 9.0719 22.9558 9.51337C23.0853 9.843 23.2383 10.3433 23.2795 11.2616C23.3266 12.2564 23.3325 12.5507 23.3325 15.07C23.3325 17.5893 23.3207 17.8836 23.2795 18.8784C23.2383 19.7966 23.0853 20.2969 22.9558 20.6266C22.7851 21.068 22.579 21.38 22.2494 21.7096C21.9198 22.0393 21.6078 22.2453 21.1663 22.416C20.8367 22.5455 20.3364 22.6985 19.4181 22.7397C18.4234 22.7868 18.1291 22.7927 15.6097 22.7927C13.0904 22.7927 12.7961 22.7809 11.8014 22.7397C10.8831 22.6985 10.3828 22.5455 10.0531 22.416C9.6117 22.2453 9.29973 22.0393 8.9701 21.7096C8.64047 21.38 8.43445 21.068 8.26375 20.6266C8.13425 20.2969 7.98121 19.7966 7.94001 18.8784C7.89292 17.8836 7.88703 17.5893 7.88703 15.07C7.88703 12.5507 7.8988 12.2564 7.94001 11.2616C7.98121 10.3433 8.13425 9.843 8.26375 9.51337C8.43445 9.0719 8.64047 8.75993 8.9701 8.4303C9.29973 8.10067 9.6117 7.89465 10.0531 7.72395C10.3828 7.59446 10.8831 7.44141 11.8014 7.40021C12.7961 7.35901 13.0963 7.34723 15.6097 7.34723ZM15.6097 10.2315C12.9374 10.2315 10.7713 12.3976 10.7713 15.07C10.7713 17.7423 12.9374 19.9084 15.6097 19.9084C18.2821 19.9084 20.4482 17.7423 20.4482 15.07C20.4482 12.3976 18.2821 10.2315 15.6097 10.2315ZM15.6097 18.2073C13.8733 18.2073 12.4724 16.8005 12.4724 15.07C12.4724 13.3335 13.8792 11.9326 15.6097 11.9326C17.3403 11.9326 18.7471 13.3394 18.7471 15.07C18.7471 16.8005 17.3403 18.2073 15.6097 18.2073ZM21.7667 10.0431C21.7667 10.6671 21.2605 11.1733 20.6366 11.1733C20.0126 11.1733 19.5064 10.6671 19.5064 10.0431C19.5064 9.41919 20.0126 8.91297 20.6366 8.91297C21.2605 8.91297 21.7667 9.41919 21.7667 10.0431Z" fill="#5E5E5E"/>
</g>
<defs>
<clipPath id="clip0_1704_39">
<rect width="31" height="31" fill="white"/>
</clipPath>
</defs>
</svg>
